<svg version="1.1" id="Layer_1" xmlns="http://www.w3.org/2000/svg" xmlns:xlink="http://www.w3.org/1999/xlink" x="0px" y="0px"
	 width="100%" viewBox="0 0 512 512" enable-background="new 0 0 512 512" xml:space="preserve">
<path fill="#000000" opacity="1.000000" stroke="none" 
	d="
M330.000000,513.000000 
	C220.026718,513.000000 110.553429,513.000000 1.040071,513.000000 
	C1.040071,342.401703 1.040071,171.803375 1.040071,1.102525 
	C171.556625,1.102525 342.113342,1.102525 512.835022,1.102525 
	C512.835022,171.666534 512.835022,342.333252 512.835022,513.000000 
	C452.136688,513.000000 391.318329,513.000000 330.000000,513.000000 
M139.182007,128.092896 
	C132.109238,130.659058 129.804794,135.023224 131.885910,141.974533 
	C133.172333,146.271393 134.431015,150.578354 135.819595,154.842560 
	C146.427750,187.419220 157.045517,219.992767 167.697678,252.555054 
	C181.194946,293.814514 194.714172,335.066772 208.256088,376.311584 
	C210.932404,384.462891 213.104507,385.981445 221.670380,385.986237 
	C245.166306,385.999451 268.662231,385.998535 292.158142,385.987000 
	C300.982574,385.982635 303.068268,384.507233 305.840851,376.000305 
	C314.241119,350.226227 322.569885,324.428802 330.960999,298.651733 
	C341.154602,267.337402 351.398438,236.039413 361.591583,204.724930 
	C368.437866,183.692474 375.413116,162.699173 381.961334,141.573883 
	C384.472900,133.471405 380.102509,128.046463 371.831177,128.031662 
	C346.169067,127.985748 320.506805,127.990891 294.844666,128.033554 
	C288.326813,128.044388 285.501984,130.344086 283.898254,136.653290 
	C277.222351,162.916611 270.560272,189.183441 263.898621,215.450363 
	C261.713837,224.065079 259.545746,232.684036 257.369995,241.301041 
	C255.886261,239.759293 255.336288,238.271454 254.955597,236.741486 
	C246.687759,203.512070 238.454941,170.273941 230.173035,137.048035 
	C228.433960,130.071136 225.785934,128.030426 218.547867,128.025391 
	C192.385880,128.007172 166.223862,128.036469 139.182007,128.092896 
z"/>
<path fill="#002849" opacity="1.000000" stroke="none" 
	d="
M139.621918,128.070358 
	C166.223862,128.036469 192.385880,128.007172 218.547867,128.025391 
	C225.785934,128.030426 228.433960,130.071136 230.173035,137.048035 
	C238.454941,170.273941 246.687759,203.512070 254.955597,236.741486 
	C255.336288,238.271454 255.886261,239.759293 257.369995,241.301041 
	C259.545746,232.684036 261.713837,224.065079 263.898621,215.450363 
	C270.560272,189.183441 277.222351,162.916611 283.898254,136.653290 
	C285.501984,130.344086 288.326813,128.044388 294.844666,128.033554 
	C320.506805,127.990891 346.169067,127.985748 371.831177,128.031662 
	C380.102509,128.046463 384.472900,133.471405 381.961334,141.573883 
	C375.413116,162.699173 368.437866,183.692474 361.591583,204.724930 
	C351.398438,236.039413 341.154602,267.337402 330.960999,298.651733 
	C322.569885,324.428802 314.241119,350.226227 305.840851,376.000305 
	C303.068268,384.507233 300.982574,385.982635 292.158142,385.987000 
	C268.662231,385.998535 245.166306,385.999451 221.670380,385.986237 
	C213.104507,385.981445 210.932404,384.462891 208.256088,376.311584 
	C194.714172,335.066772 181.194946,293.814514 167.697678,252.555054 
	C157.045517,219.992767 146.427750,187.419220 135.819595,154.842560 
	C134.431015,150.578354 133.172333,146.271393 131.885910,141.974533 
	C129.804794,135.023224 132.109238,130.659058 139.621918,128.070358 
M233.001450,191.565567 
	C229.002930,175.409454 224.882263,159.281860 221.097733,143.075790 
	C220.226959,139.347000 218.862305,137.992004 214.870911,138.028259 
	C192.207443,138.234116 169.541168,138.121185 146.875854,138.142792 
	C145.324783,138.144272 143.773926,138.358002 142.003159,138.489334 
	C142.249420,139.669556 142.322693,140.322296 142.522171,140.933853 
	C167.707977,218.146378 192.918106,295.350983 218.037216,372.585175 
	C218.947876,375.385254 220.416489,376.002472 223.099060,375.971954 
	C234.263611,375.845032 245.430466,375.919373 256.596466,375.919556 
	C269.247894,375.919739 281.899353,375.919586 294.789734,375.919586 
	C320.652893,296.681274 346.432434,217.699280 372.404388,138.127731 
	C369.738861,138.127731 368.085693,138.127731 366.432526,138.127731 
	C344.267181,138.127731 322.100433,138.254868 299.937622,138.018051 
	C295.622040,137.971954 293.990601,139.331985 292.967712,143.453140 
	C281.460815,189.812958 269.761475,236.124985 258.094757,282.445068 
	C257.820496,283.533966 257.325165,284.567200 256.546661,286.669556 
	C248.537308,254.392395 240.843216,223.385757 233.001450,191.565567 
z"/>
<path fill="#2492FE" opacity="1.000000" stroke="none" 
	d="
M233.075287,191.972351 
	C240.843216,223.385757 248.537308,254.392395 256.546661,286.669556 
	C257.325165,284.567200 257.820496,283.533966 258.094757,282.445068 
	C269.761475,236.124985 281.460815,189.812958 292.967712,143.453140 
	C293.990601,139.331985 295.622040,137.971954 299.937622,138.018051 
	C322.100433,138.254868 344.267181,138.127731 366.432526,138.127731 
	C368.085693,138.127731 369.738861,138.127731 372.404388,138.127731 
	C346.432434,217.699280 320.652893,296.681274 294.789734,375.919586 
	C281.899353,375.919586 269.247894,375.919739 256.596466,375.919556 
	C245.430466,375.919373 234.263611,375.845032 223.099060,375.971954 
	C220.416489,376.002472 218.947876,375.385254 218.037216,372.585175 
	C192.918106,295.350983 167.707977,218.146378 142.522171,140.933853 
	C142.322693,140.322296 142.249420,139.669556 142.003159,138.489334 
	C143.773926,138.358002 145.324783,138.144272 146.875854,138.142792 
	C169.541168,138.121185 192.207443,138.234116 214.870911,138.028259 
	C218.862305,137.992004 220.226959,139.347000 221.097733,143.075790 
	C224.882263,159.281860 229.002930,175.409454 233.075287,191.972351 
z"/>
</svg>